<?xml version="1.0" ?><!DOCTYPE svg  PUBLIC '-//W3C//DTD SVG 1.1//EN'  'http://www.w3.org/Graphics/SVG/1.1/DTD/svg11.dtd'><svg enable-background="new 0 0 512 512" id="Layer_1" version="1.1" viewBox="0 0 512 512" xml:space="preserve" xmlns="http://www.w3.org/2000/svg" xmlns:xlink="http://www.w3.org/1999/xlink"><g><path d="M257.2,5c74.1,0,148.3,0,222.4,0C499.1,5,511,17,511,36.5c0,147,0,293.9,0,440.9c0,19.7-11.9,31.6-31.8,31.6   c-148.1,0-296.3,0-444.4,0C14.7,509,3,497.2,3,477C3,330.3,3,183.7,3,37.1C3,16.6,14.7,5,35.3,5C109.3,5,183.3,5,257.2,5z M257,495   c74,0,148,0,222,0c12.3,0,18-5.7,18-18c0-146.7,0-293.3,0-440c0-12.3-5.7-18-18-18c-148,0-296,0-444,0c-12.3,0-18,5.7-18,18   c0,146.7,0,293.3,0,440c0,12.3,5.7,18,18,18C109,495,183,495,257,495z"/><path d="M372.9,64.9c0,9.9,0,19.2,0,28.5c0,7.8-0.5,15.7,0.1,23.5c0.8,10.9-2,20.3-7.2,29.9c-20.1,37.5-39.7,75.3-59.4,113.1   c-2.8,5.4,0.5,11.1,6.7,11.1c18.5,0.1,37,0,55.5,0c1.3,0,2.6,0.2,4.1,0.3c0,31.1,0,61.8,0,93.3c-2,0-4,0-5.9,0   c-34.5,0-69,0-103.5,0c-7.7,0-13.4,3.9-16.9,10.3c-10,18.4-19.5,37.1-29.4,55.6c-3,5.6-7,9.3-14.5,9.1c-18.5-0.5-37-0.2-55.5-0.2   c-1.8,0-3.6,0-5.9,0c-0.1-2-0.3-3.6-0.3-5.2c0-19.7-0.1-39.3,0.1-59c0-2.4,0.6-5,1.6-7.1c21.4-41,42.8-82,64.3-122.9   c3.4-6.4,0.2-11.5-7.2-11.6c-17.7,0-35.3,0-53,0c-1.8,0-3.6,0-5.6,0c0-31.4,0-62.2,0-93.7c2.1,0,4,0,6,0c34.3,0,68.7,0,103,0   c8,0,13.7-3.9,17.3-10.5c9.8-18,19.1-36.2,28.7-54.3c3.5-6.7,8-10.8,16.7-10.5C332.4,65.4,352.3,64.9,372.9,64.9z"/></g></svg>